<?xml version="1.0" encoding="UTF-8" standalone="no"?>
<!-- Created with Inkscape (http://www.inkscape.org/) -->

<svg
   xmlns:dc="http://purl.org/dc/elements/1.1/"
   xmlns:cc="http://creativecommons.org/ns#"
   xmlns:rdf="http://www.w3.org/1999/02/22-rdf-syntax-ns#"
   xmlns:svg="http://www.w3.org/2000/svg"
   xmlns="http://www.w3.org/2000/svg"
   xmlns:sodipodi="http://sodipodi.sourceforge.net/DTD/sodipodi-0.dtd"
   xmlns:inkscape="http://www.inkscape.org/namespaces/inkscape"
   width="265.63965"
   height="255.39435"
   id="svg2"
   version="1.1"
   inkscape:version="0.48.3.1 r9886"
   sodipodi:docname="umbrella.svg">
  <defs
     id="defs4" />
  <sodipodi:namedview
     id="base"
     pagecolor="#ffffff"
     bordercolor="#666666"
     borderopacity="1.0"
     inkscape:pageopacity="0.0"
     inkscape:pageshadow="2"
     inkscape:zoom="1.4"
     inkscape:cx="90.230932"
     inkscape:cy="171.75351"
     inkscape:document-units="px"
     inkscape:current-layer="layer1"
     showgrid="false"
     fit-margin-top="10"
     fit-margin-right="1"
     fit-margin-bottom="1"
     fit-margin-left="1"
     inkscape:window-width="1301"
     inkscape:window-height="744"
     inkscape:window-x="65"
     inkscape:window-y="24"
     inkscape:window-maximized="1" />
  <metadata
     id="metadata7">
    <rdf:RDF>
      <cc:Work
         rdf:about="">
        <dc:format>image/svg+xml</dc:format>
        <dc:type
           rdf:resource="http://purl.org/dc/dcmitype/StillImage" />
        <dc:title />
      </cc:Work>
    </rdf:RDF>
  </metadata>
  <g
     inkscape:label="Layer 1"
     inkscape:groupmode="layer"
     id="layer1"
     transform="translate(-169.21578,-330.96932)">
    <path
       style="fill:none;stroke:#000000;stroke-width:1px;stroke-linecap:butt;stroke-linejoin:miter;stroke-opacity:1"
       d="m 170.71578,435.66405 c 0,0 2.57805,-78.9033 131.31983,-78.28682 130.76601,0.62618 131.31983,78.28682 131.31983,78.28682 0,0 -27.71132,-21.05262 -46.92687,-20.08758 -17.25042,0.86634 -41.78571,21.07143 -41.78571,21.07143 0,0 -23.13959,-21.02567 -40.71429,-21.07143 -17.49832,-0.0456 -40,20.71428 -40,20.71428 0,0 -24.88991,-19.50442 -42.5,-20.71428 -20.83853,-1.43167 -50.71279,20.08758 -50.71279,20.08758 z"
       id="path3768"
       inkscape:connector-curvature="0"
       sodipodi:nodetypes="cscscscsc" />
    <path
       style="fill:none;stroke:#000000;stroke-width:6;stroke-linecap:butt;stroke-linejoin:miter;stroke-miterlimit:4;stroke-opacity:1;stroke-dasharray:none"
       d="M 302.14286,415.57647 302.5,564.1479 c 0,0 -0.727,18.40639 18.21429,18.21428 15.96196,-0.16189 16.42857,-16.42857 16.42857,-16.42857"
       id="path3770"
       inkscape:connector-curvature="0"
       sodipodi:nodetypes="ccsc" />
    <path
       style="fill:none;stroke:#000000;stroke-width:6;stroke-linecap:butt;stroke-linejoin:miter;stroke-miterlimit:4;stroke-opacity:1;stroke-dasharray:none"
       d="m 303.39286,356.82647 0.17857,-12.85715 0,0"
       id="path3772"
       inkscape:connector-curvature="0" />
    <path
       style="fill:none;stroke:#000000;stroke-width:1px;stroke-linecap:butt;stroke-linejoin:miter;stroke-opacity:1"
       d="m 263.39728,435.66405 c 0,0 -5.97625,-30.07414 0.25253,-46.46701 10.57693,-27.8363 39.14342,-31.56727 39.14342,-31.56727"
       id="path3774"
       inkscape:connector-curvature="0"
       sodipodi:nodetypes="csc" />
    <path
       style="fill:none;stroke:#000000;stroke-width:1px;stroke-linecap:butt;stroke-linejoin:miter;stroke-opacity:1"
       d="m 344.68582,435.79032 c 0,0 5.97625,-30.07414 -0.25253,-46.46701 -10.57693,-27.8363 -39.14342,-31.56727 -39.14342,-31.56727"
       id="path3774-2"
       inkscape:connector-curvature="0"
       sodipodi:nodetypes="csc" />
    <path
       style="fill:#cccccc;fill-opacity:1;stroke:none"
       d="m 172.15814,430.78874 c 1.66765,-9.10782 7.25755,-21.23213 13.90178,-30.1525 18.50893,-24.84965 54.33223,-39.92681 99.4472,-41.85495 l 9.43959,-0.40344 -4.34913,2.01366 c -11.74785,5.43928 -20.45242,13.47537 -25.3434,23.39711 -4.37934,8.88384 -5.1785,13.99704 -4.63863,29.6787 0.25022,7.26785 0.63753,14.75724 0.86069,16.64308 l 0.40575,3.42881 -6.68192,-4.39606 c -23.19003,-15.25678 -36.15957,-17.52027 -56.24946,-9.81685 -6.1052,2.34103 -18.65554,8.80983 -23.32426,12.02199 -1.69394,1.16547 -3.27761,2.11903 -3.51927,2.11903 -0.24166,0 -0.21868,-1.20536 0.0511,-2.67858 l 0,0 z"
       id="path3796"
       inkscape:connector-curvature="0" />
    <path
       style="fill:#cccccc;fill-opacity:1;stroke:none"
       d="m 263.87528,434.4368 c 0,-0.3051 -0.51961,-4.74626 -1.1547,-9.86925 -1.44315,-11.64127 -0.99237,-25.77432 1.02855,-32.24775 4.37548,-14.01555 15.08554,-25.20533 29.6361,-30.96357 7.1806,-2.84165 10.26468,-3.21224 15.5226,-1.86523 5.97961,1.53191 15.15919,6.1305 20.1038,10.07118 2.23571,1.78178 5.56521,5.23542 7.3989,7.67476 7.28465,9.69073 9.62702,17.37829 9.69853,31.83003 0.0455,9.19754 -1.23971,23.57901 -2.19943,24.6116 -0.29056,0.31262 -3.54539,-1.67871 -7.23295,-4.42519 -12.058,-8.98074 -24.34183,-14.35749 -32.8014,-14.35749 -9.53131,0 -23.08091,6.47008 -36.96428,17.65087 -1.66965,1.34462 -3.03572,2.19514 -3.03572,1.89004 z"
       id="path3798"
       inkscape:connector-curvature="0" />
    <path
       style="fill:#cccccc;fill-opacity:1;stroke:none"
       d="m 346.24368,431.94733 c 2.40146,-13.86324 2.28101,-31.44419 -0.27504,-40.14336 -4.02461,-13.69724 -14.58257,-25.18668 -28.95658,-31.51131 l -4.20821,-1.85163 6.42858,0.41532 c 40.27438,2.60199 70.79884,13.4555 90.26895,32.09673 9.49732,9.09301 14.99432,17.13784 19.05629,27.88879 1.83693,4.86188 4.08153,13.95676 3.57061,14.46769 -0.14075,0.14076 -1.81419,-0.84316 -3.71874,-2.18647 -5.25931,-3.70947 -16.05479,-9.56619 -21.94856,-11.90745 -9.02588,-3.58546 -13.6882,-4.51844 -20.44284,-4.09083 -9.63039,0.60966 -17.88406,4.19352 -32.77441,14.23111 l -7.41728,4.99999 0.41723,-2.40858 0,0 z"
       id="path3800"
       inkscape:connector-curvature="0" />
  </g>
</svg>
